<?xml version="1.0" encoding="utf-8"?>
<!-- Generator: Adobe Illustrator 24.0.2, SVG Export Plug-In . SVG Version: 6.00 Build 0)  -->
<svg version="1.1" xmlns="http://www.w3.org/2000/svg" xmlns:xlink="http://www.w3.org/1999/xlink" x="0px" y="0px"
	 viewBox="0 0 629.15 194.95" style="enable-background:new 0 0 629.15 194.95;" xml:space="preserve">
<style type="text/css">
	.st0{fill:url(#SVGID_1_);}
	.st1{fill:url(#SVGID_2_);}
	.st2{fill:url(#SVGID_3_);}
	.st3{fill:url(#SVGID_4_);}
	.st4{fill:#5B2447;}
	.st5{fill:#90203D;}
	.st6{fill:#BE1D36;}
	.st7{fill:#2A2325;}
	.st8{fill:#010202;}
	.st9{fill:url(#SVGID_5_);}
	.st10{fill:url(#SVGID_6_);}
	.st11{fill:url(#SVGID_7_);}
	.st12{fill:url(#SVGID_8_);}
	.st13{fill:#F6B91A;}
	.st14{clip-path:url(#SVGID_10_);}
	.st15{opacity:0.72;fill:#292F6A;}
	.st16{fill:#FFFFFF;}
	.st17{fill:url(#SVGID_11_);}
	.st18{fill:url(#SVGID_12_);}
	.st19{fill:url(#SVGID_13_);}
	.st20{fill:url(#SVGID_14_);}
	.st21{fill:url(#SVGID_15_);}
	.st22{fill:url(#SVGID_16_);}
	.st23{fill:url(#SVGID_17_);}
	.st24{fill:url(#SVGID_18_);}
	.st25{fill:url(#SVGID_19_);}
	.st26{fill:url(#SVGID_20_);}
	.st27{fill:url(#SVGID_21_);}
	.st28{fill:url(#SVGID_22_);}
	.st29{fill:url(#SVGID_23_);}
	.st30{fill:url(#SVGID_24_);}
	.st31{fill:url(#SVGID_25_);}
	.st32{fill:url(#SVGID_26_);}
	.st33{fill:url(#SVGID_27_);}
	.st34{fill:url(#SVGID_28_);}
	.st35{fill:url(#SVGID_29_);}
	.st36{fill:url(#SVGID_30_);}
	.st37{clip-path:url(#SVGID_32_);}
	.st38{fill:url(#SVGID_33_);}
	.st39{fill:url(#SVGID_34_);}
	.st40{fill:url(#SVGID_35_);}
	.st41{fill:url(#SVGID_36_);}
	.st42{display:none;}
	.st43{display:inline;}
	.st44{fill:none;stroke:#9D9D9C;stroke-width:0.5;stroke-miterlimit:10;}
	.st45{fill:url(#SVGID_37_);}
	.st46{fill:url(#SVGID_38_);}
	.st47{fill:url(#SVGID_39_);}
	.st48{fill:url(#SVGID_40_);}
</style>
<g id="Capa_1">
</g>
<g id="Capa_1_copia_4">
</g>
<g id="Capa_2">
</g>
<g id="Capa_3">
</g>
<g id="Capa_4">
</g>
<g id="Capa_5">
</g>
<g id="Capa_1_copia_2">
</g>
<g id="Capa_1_copia">
</g>
<g id="Capa_1_copia_3">
</g>
<g id="Capa_10">
	<g class="st42">
		<g class="st43">
			<rect x="330.38" y="2.64" class="st44" width="187.91" height="187.91"/>
			<line class="st44" x1="330.38" y1="163.71" x2="518.29" y2="163.71"/>
			<line class="st44" x1="330.38" y1="150.28" x2="518.29" y2="150.28"/>
			<line class="st44" x1="330.38" y1="177.13" x2="518.29" y2="177.13"/>
			<line class="st44" x1="330.38" y1="136.86" x2="518.29" y2="136.86"/>
			<line class="st44" x1="330.38" y1="123.44" x2="518.29" y2="123.44"/>
			<line class="st44" x1="330.38" y1="110.02" x2="518.29" y2="110.02"/>
			<line class="st44" x1="330.38" y1="96.6" x2="518.29" y2="96.6"/>
			<line class="st44" x1="330.38" y1="83.18" x2="518.29" y2="83.18"/>
			<line class="st44" x1="330.38" y1="69.75" x2="518.29" y2="69.75"/>
			<line class="st44" x1="330.38" y1="56.33" x2="518.29" y2="56.33"/>
			<line class="st44" x1="330.38" y1="42.91" x2="518.29" y2="42.91"/>
			<line class="st44" x1="330.38" y1="29.49" x2="518.29" y2="29.49"/>
			<line class="st44" x1="330.38" y1="16.07" x2="518.29" y2="16.07"/>
			<line class="st44" x1="491.44" y1="2.64" x2="491.44" y2="190.55"/>
			<line class="st44" x1="478.02" y1="2.64" x2="478.02" y2="190.55"/>
			<line class="st44" x1="504.86" y1="2.64" x2="504.86" y2="190.55"/>
			<line class="st44" x1="464.6" y1="2.64" x2="464.6" y2="190.55"/>
			<line class="st44" x1="451.18" y1="2.64" x2="451.18" y2="190.55"/>
			<line class="st44" x1="437.75" y1="2.64" x2="437.75" y2="190.55"/>
			<line class="st44" x1="424.33" y1="2.64" x2="424.33" y2="190.55"/>
			<line class="st44" x1="410.91" y1="2.64" x2="410.91" y2="190.55"/>
			<line class="st44" x1="397.49" y1="2.64" x2="397.49" y2="190.55"/>
			<line class="st44" x1="384.06" y1="2.64" x2="384.06" y2="190.55"/>
			<line class="st44" x1="370.64" y1="2.64" x2="370.64" y2="190.55"/>
			<line class="st44" x1="357.22" y1="2.64" x2="357.22" y2="190.55"/>
			<line class="st44" x1="343.8" y1="2.64" x2="343.8" y2="190.55"/>
		</g>
		<g class="st43">
			<polyline class="st44" points="330.38,29.49 357.22,2.64 384.06,29.49 410.91,2.64 437.75,29.49 464.6,2.64 491.44,29.49 
				518.29,2.64 			"/>
			<polyline class="st44" points="330.38,56.33 357.22,29.49 384.06,56.33 410.91,29.49 437.75,56.33 464.6,29.49 491.44,56.33 
				518.29,29.49 			"/>
			<polyline class="st44" points="330.38,83.17 357.22,56.33 384.06,83.17 410.91,56.33 437.75,83.17 464.6,56.33 491.44,83.17 
				518.29,56.33 			"/>
			<polyline class="st44" points="330.38,110.02 357.22,83.17 384.06,110.01 410.91,83.17 437.75,110.01 464.6,83.17 491.44,110.01 
				518.29,83.17 			"/>
			<polyline class="st44" points="330.38,136.86 357.22,110.01 384.06,136.86 410.91,110.01 437.75,136.86 464.6,110.01 
				491.44,136.86 518.29,110.01 			"/>
			<polyline class="st44" points="330.38,163.7 357.22,136.86 384.06,163.7 410.91,136.86 437.75,163.7 464.6,136.86 491.44,163.7 
				518.29,136.86 			"/>
			<polyline class="st44" points="330.38,190.54 357.22,163.7 384.06,190.54 410.91,163.7 437.75,190.54 464.6,163.7 491.44,190.54 
				518.29,163.7 			"/>
		</g>
		<g class="st43">
			<polyline class="st44" points="518.29,29.49 491.44,2.64 464.6,29.49 437.75,2.64 410.91,29.49 384.06,2.64 357.22,29.49 
				330.38,2.64 			"/>
			<polyline class="st44" points="518.29,56.33 491.44,29.49 464.6,56.33 437.75,29.49 410.91,56.33 384.06,29.49 357.22,56.33 
				330.38,29.49 			"/>
			<polyline class="st44" points="518.29,83.17 491.44,56.33 464.6,83.17 437.75,56.33 410.91,83.17 384.06,56.33 357.22,83.17 
				330.38,56.33 			"/>
			<polyline class="st44" points="518.29,110.02 491.44,83.17 464.6,110.01 437.75,83.17 410.91,110.01 384.06,83.17 357.22,110.01 
				330.38,83.17 			"/>
			<polyline class="st44" points="518.29,136.86 491.44,110.01 464.6,136.86 437.75,110.01 410.91,136.86 384.06,110.01 
				357.22,136.86 330.38,110.01 			"/>
			<polyline class="st44" points="518.29,163.7 491.44,136.86 464.6,163.7 437.75,136.86 410.91,163.7 384.06,136.86 357.22,163.7 
				330.38,136.86 			"/>
			<polyline class="st44" points="518.29,190.54 491.44,163.7 464.6,190.54 437.75,163.7 410.91,190.54 384.06,163.7 357.22,190.54 
				330.38,163.7 			"/>
		</g>
	</g>
	<g class="st42">
		<g class="st43">
			<rect x="339.67" y="5.74" class="st44" width="182.39" height="182.4"/>
			<line class="st44" x1="365.72" y1="5.74" x2="365.72" y2="188.14"/>
			<line class="st44" x1="378.75" y1="5.74" x2="378.75" y2="188.14"/>
			<line class="st44" x1="352.7" y1="5.74" x2="352.7" y2="188.14"/>
			<line class="st44" x1="391.78" y1="5.74" x2="391.78" y2="188.14"/>
			<line class="st44" x1="404.81" y1="5.74" x2="404.81" y2="188.14"/>
			<line class="st44" x1="417.84" y1="5.74" x2="417.84" y2="188.14"/>
			<line class="st44" x1="430.86" y1="5.74" x2="430.86" y2="188.14"/>
			<line class="st44" x1="443.89" y1="5.74" x2="443.89" y2="188.14"/>
			<line class="st44" x1="456.92" y1="5.74" x2="456.92" y2="188.14"/>
			<line class="st44" x1="469.95" y1="5.74" x2="469.95" y2="188.14"/>
			<line class="st44" x1="482.98" y1="5.74" x2="482.98" y2="188.14"/>
			<line class="st44" x1="496" y1="5.74" x2="496" y2="188.14"/>
			<line class="st44" x1="509.03" y1="5.74" x2="509.03" y2="188.14"/>
			<line class="st44" x1="522.06" y1="162.08" x2="339.67" y2="162.08"/>
			<line class="st44" x1="522.06" y1="149.05" x2="339.67" y2="149.05"/>
			<line class="st44" x1="522.06" y1="175.11" x2="339.67" y2="175.11"/>
			<line class="st44" x1="522.06" y1="136.03" x2="339.67" y2="136.03"/>
			<line class="st44" x1="522.06" y1="123" x2="339.67" y2="123"/>
			<line class="st44" x1="522.06" y1="109.97" x2="339.67" y2="109.97"/>
			<line class="st44" x1="522.06" y1="96.94" x2="339.67" y2="96.94"/>
			<line class="st44" x1="522.06" y1="83.91" x2="339.67" y2="83.91"/>
			<line class="st44" x1="522.06" y1="70.88" x2="339.67" y2="70.88"/>
			<line class="st44" x1="522.06" y1="57.86" x2="339.67" y2="57.86"/>
			<line class="st44" x1="522.06" y1="44.83" x2="339.67" y2="44.83"/>
			<line class="st44" x1="522.06" y1="31.8" x2="339.67" y2="31.8"/>
			<line class="st44" x1="522.06" y1="18.77" x2="339.67" y2="18.77"/>
		</g>
		<g class="st43">
			<polyline class="st44" points="509.03,5.74 522.06,31.8 509.03,57.86 522.06,83.91 509.03,109.97 522.06,136.03 509.03,162.08 
				522.06,188.14 			"/>
			<polyline class="st44" points="496,5.74 509.03,31.8 496,57.86 509.03,83.91 496,109.97 509.03,136.03 496,162.08 509.03,188.14 
							"/>
			<polyline class="st44" points="482.98,5.74 496,31.8 482.98,57.86 496,83.91 482.98,109.97 496,136.03 482.98,162.08 496,188.14 
							"/>
			<polyline class="st44" points="469.95,5.74 482.98,31.8 469.95,57.86 482.98,83.91 469.95,109.97 482.98,136.03 469.95,162.08 
				482.98,188.14 			"/>
			<polyline class="st44" points="456.92,5.74 469.95,31.8 456.92,57.86 469.95,83.91 456.92,109.97 469.95,136.03 456.92,162.08 
				469.95,188.14 			"/>
			<polyline class="st44" points="443.89,5.74 456.92,31.8 443.89,57.86 456.92,83.91 443.89,109.97 456.92,136.03 443.89,162.08 
				456.92,188.14 			"/>
			<polyline class="st44" points="430.86,5.74 443.89,31.8 430.86,57.86 443.89,83.91 430.86,109.97 443.89,136.03 430.86,162.08 
				443.89,188.14 			"/>
			<polyline class="st44" points="417.84,5.74 430.86,31.8 417.84,57.86 430.86,83.91 417.84,109.97 430.86,136.03 417.84,162.08 
				430.86,188.14 			"/>
			<polyline class="st44" points="404.81,5.74 417.84,31.8 404.81,57.86 417.84,83.91 404.81,109.97 417.84,136.03 404.81,162.08 
				417.84,188.14 			"/>
			<polyline class="st44" points="391.78,5.74 404.81,31.8 391.78,57.86 404.81,83.91 391.78,109.97 404.81,136.03 391.78,162.08 
				404.81,188.14 			"/>
			<polyline class="st44" points="378.75,5.74 391.78,31.8 378.75,57.86 391.78,83.91 378.75,109.97 391.78,136.03 378.75,162.08 
				391.78,188.14 			"/>
			<polyline class="st44" points="365.72,5.74 378.75,31.8 365.72,57.86 378.75,83.91 365.72,109.97 378.75,136.03 365.72,162.08 
				378.75,188.14 			"/>
			<polyline class="st44" points="352.7,5.74 365.72,31.8 352.7,57.86 365.72,83.91 352.7,109.97 365.72,136.03 352.7,162.08 
				365.72,188.14 			"/>
			<polyline class="st44" points="339.67,5.74 352.7,31.8 339.67,57.86 352.7,83.91 339.67,109.97 352.7,136.03 339.67,162.08 
				352.7,188.14 			"/>
		</g>
		<g class="st43">
			<polyline class="st44" points="509.03,188.14 522.06,162.08 509.03,136.03 522.06,109.97 509.03,83.91 522.06,57.86 509.03,31.8 
				522.06,5.74 			"/>
			<polyline class="st44" points="496,188.14 509.03,162.08 496,136.03 509.03,109.97 496,83.91 509.03,57.86 496,31.8 509.03,5.74 
							"/>
			<polyline class="st44" points="482.98,188.14 496,162.08 482.98,136.03 496,109.97 482.98,83.91 496,57.86 482.98,31.8 496,5.74 
							"/>
			<polyline class="st44" points="469.95,188.14 482.98,162.08 469.95,136.03 482.98,109.97 469.95,83.91 482.98,57.86 469.95,31.8 
				482.98,5.74 			"/>
			<polyline class="st44" points="456.92,188.14 469.95,162.08 456.92,136.03 469.95,109.97 456.92,83.91 469.95,57.86 456.92,31.8 
				469.95,5.74 			"/>
			<polyline class="st44" points="443.89,188.14 456.92,162.08 443.89,136.03 456.92,109.97 443.89,83.91 456.92,57.86 443.89,31.8 
				456.92,5.74 			"/>
			<polyline class="st44" points="430.86,188.14 443.89,162.08 430.86,136.03 443.89,109.97 430.86,83.91 443.89,57.86 430.86,31.8 
				443.89,5.74 			"/>
			<polyline class="st44" points="417.84,188.14 430.86,162.08 417.84,136.03 430.86,109.97 417.84,83.91 430.86,57.86 417.84,31.8 
				430.86,5.74 			"/>
			<polyline class="st44" points="404.81,188.14 417.84,162.08 404.81,136.03 417.84,109.97 404.81,83.91 417.84,57.86 404.81,31.8 
				417.84,5.74 			"/>
			<polyline class="st44" points="391.78,188.14 404.81,162.08 391.78,136.03 404.81,109.97 391.78,83.91 404.81,57.86 391.78,31.8 
				404.81,5.74 			"/>
			<polyline class="st44" points="378.75,188.14 391.78,162.08 378.75,136.03 391.78,109.97 378.75,83.91 391.78,57.86 378.75,31.8 
				391.78,5.74 			"/>
			<polyline class="st44" points="365.72,188.14 378.75,162.08 365.72,136.03 378.75,109.97 365.72,83.91 378.75,57.86 365.72,31.8 
				378.75,5.74 			"/>
			<polyline class="st44" points="352.7,188.14 365.72,162.08 352.7,136.03 365.72,109.97 352.7,83.91 365.72,57.86 352.7,31.8 
				365.72,5.74 			"/>
			<polyline class="st44" points="339.67,188.14 352.7,162.08 339.67,136.03 352.7,109.97 339.67,83.91 352.7,57.86 339.67,31.8 
				352.7,5.74 			"/>
		</g>
	</g>
	<g class="st42">
		<g class="st43">
			<rect x="332.01" y="3.48" class="st44" width="186.11" height="186.11"/>
			<line class="st44" x1="518.12" y1="30.07" x2="332.01" y2="30.07"/>
			<line class="st44" x1="518.12" y1="43.36" x2="332.01" y2="43.36"/>
			<line class="st44" x1="518.12" y1="16.77" x2="332.01" y2="16.77"/>
			<line class="st44" x1="518.12" y1="56.65" x2="332.01" y2="56.65"/>
			<line class="st44" x1="518.12" y1="69.95" x2="332.01" y2="69.95"/>
			<line class="st44" x1="518.12" y1="83.24" x2="332.01" y2="83.24"/>
			<line class="st44" x1="518.12" y1="96.53" x2="332.01" y2="96.53"/>
			<line class="st44" x1="518.12" y1="109.83" x2="332.01" y2="109.83"/>
			<line class="st44" x1="518.12" y1="123.12" x2="332.01" y2="123.12"/>
			<line class="st44" x1="518.12" y1="136.41" x2="332.01" y2="136.41"/>
			<line class="st44" x1="518.12" y1="149.71" x2="332.01" y2="149.71"/>
			<line class="st44" x1="518.12" y1="163" x2="332.01" y2="163"/>
			<line class="st44" x1="518.12" y1="176.29" x2="332.01" y2="176.29"/>
			<line class="st44" x1="358.6" y1="189.58" x2="358.6" y2="3.48"/>
			<line class="st44" x1="371.89" y1="189.58" x2="371.89" y2="3.48"/>
			<line class="st44" x1="345.3" y1="189.58" x2="345.3" y2="3.48"/>
			<line class="st44" x1="385.18" y1="189.58" x2="385.18" y2="3.48"/>
			<line class="st44" x1="398.48" y1="189.58" x2="398.48" y2="3.48"/>
			<line class="st44" x1="411.77" y1="189.58" x2="411.77" y2="3.48"/>
			<line class="st44" x1="425.06" y1="189.58" x2="425.06" y2="3.48"/>
			<line class="st44" x1="438.36" y1="189.58" x2="438.36" y2="3.48"/>
			<line class="st44" x1="451.65" y1="189.58" x2="451.65" y2="3.48"/>
			<line class="st44" x1="464.94" y1="189.58" x2="464.94" y2="3.48"/>
			<line class="st44" x1="478.24" y1="189.58" x2="478.24" y2="3.48"/>
			<line class="st44" x1="491.53" y1="189.58" x2="491.53" y2="3.48"/>
			<line class="st44" x1="504.82" y1="189.58" x2="504.82" y2="3.48"/>
		</g>
		<g class="st43">
			<polyline class="st44" points="518.12,176.29 491.53,189.58 464.94,176.29 438.36,189.58 411.77,176.29 385.18,189.58 
				358.6,176.29 332.01,189.58 			"/>
			<polyline class="st44" points="518.12,163 491.53,176.29 464.94,163 438.36,176.29 411.77,163 385.18,176.29 358.6,163 
				332.01,176.29 			"/>
			<polyline class="st44" points="518.12,149.71 491.53,163 464.94,149.71 438.36,163 411.77,149.71 385.18,163 358.6,149.71 
				332.01,163 			"/>
			<polyline class="st44" points="518.12,136.41 491.53,149.71 464.94,136.41 438.36,149.71 411.77,136.41 385.18,149.71 
				358.6,136.41 332.01,149.71 			"/>
			<polyline class="st44" points="518.12,123.12 491.53,136.41 464.94,123.12 438.36,136.41 411.77,123.12 385.18,136.41 
				358.6,123.12 332.01,136.41 			"/>
			<polyline class="st44" points="518.12,109.83 491.53,123.12 464.94,109.83 438.36,123.12 411.77,109.83 385.18,123.12 
				358.6,109.83 332.01,123.12 			"/>
			<polyline class="st44" points="518.12,96.53 491.53,109.83 464.94,96.53 438.36,109.83 411.77,96.53 385.18,109.83 358.6,96.53 
				332.01,109.83 			"/>
			<polyline class="st44" points="518.12,83.24 491.53,96.53 464.94,83.24 438.36,96.53 411.77,83.24 385.18,96.53 358.6,83.24 
				332.01,96.53 			"/>
			<polyline class="st44" points="518.12,69.95 491.53,83.24 464.94,69.95 438.36,83.24 411.77,69.95 385.18,83.24 358.6,69.95 
				332.01,83.24 			"/>
			<polyline class="st44" points="518.12,56.65 491.53,69.95 464.94,56.65 438.36,69.95 411.77,56.65 385.18,69.95 358.6,56.65 
				332.01,69.95 			"/>
			<polyline class="st44" points="518.12,43.36 491.53,56.65 464.94,43.36 438.36,56.65 411.77,43.36 385.18,56.65 358.6,43.36 
				332.01,56.65 			"/>
			<polyline class="st44" points="518.12,30.07 491.53,43.36 464.94,30.07 438.36,43.36 411.77,30.07 385.18,43.36 358.6,30.07 
				332.01,43.36 			"/>
			<polyline class="st44" points="518.12,16.77 491.53,30.07 464.94,16.77 438.36,30.07 411.77,16.77 385.18,30.07 358.6,16.77 
				332.01,30.07 			"/>
			<polyline class="st44" points="518.12,3.48 491.53,16.77 464.94,3.48 438.36,16.77 411.77,3.48 385.18,16.77 358.6,3.48 
				332.01,16.77 			"/>
		</g>
		<g class="st43">
			<polyline class="st44" points="332.01,176.29 358.6,189.58 385.18,176.29 411.77,189.58 438.36,176.29 464.94,189.58 
				491.53,176.29 518.12,189.58 			"/>
			<polyline class="st44" points="332.01,163 358.6,176.29 385.18,163 411.77,176.29 438.36,163 464.94,176.29 491.53,163 
				518.12,176.29 			"/>
			<polyline class="st44" points="332.01,149.71 358.6,163 385.18,149.71 411.77,163 438.36,149.71 464.94,163 491.53,149.71 
				518.12,163 			"/>
			<polyline class="st44" points="332.01,136.41 358.6,149.71 385.18,136.41 411.77,149.71 438.36,136.41 464.94,149.71 
				491.53,136.41 518.12,149.71 			"/>
			<polyline class="st44" points="332.01,123.12 358.6,136.41 385.18,123.12 411.77,136.41 438.36,123.12 464.94,136.41 
				491.53,123.12 518.12,136.41 			"/>
			<polyline class="st44" points="332.01,109.83 358.6,123.12 385.18,109.83 411.77,123.12 438.36,109.83 464.94,123.12 
				491.53,109.83 518.12,123.12 			"/>
			<polyline class="st44" points="332.01,96.53 358.6,109.83 385.18,96.53 411.77,109.83 438.36,96.53 464.94,109.83 491.53,96.53 
				518.12,109.83 			"/>
			<polyline class="st44" points="332.01,83.24 358.6,96.53 385.18,83.24 411.77,96.53 438.36,83.24 464.94,96.53 491.53,83.24 
				518.12,96.53 			"/>
			<polyline class="st44" points="332.01,69.95 358.6,83.24 385.18,69.95 411.77,83.24 438.36,69.95 464.94,83.24 491.53,69.95 
				518.12,83.24 			"/>
			<polyline class="st44" points="332.01,56.65 358.6,69.95 385.18,56.65 411.77,69.95 438.36,56.65 464.94,69.95 491.53,56.65 
				518.12,69.95 			"/>
			<polyline class="st44" points="332.01,43.36 358.6,56.65 385.18,43.36 411.77,56.65 438.36,43.36 464.94,56.65 491.53,43.36 
				518.12,56.65 			"/>
			<polyline class="st44" points="332.01,30.07 358.6,43.36 385.18,30.07 411.77,43.36 438.36,30.07 464.94,43.36 491.53,30.07 
				518.12,43.36 			"/>
			<polyline class="st44" points="332.01,16.77 358.6,30.07 385.18,16.77 411.77,30.07 438.36,16.77 464.94,30.07 491.53,16.77 
				518.12,30.07 			"/>
			<polyline class="st44" points="332.01,3.48 358.6,16.77 385.18,3.48 411.77,16.77 438.36,3.48 464.94,16.77 491.53,3.48 
				518.12,16.77 			"/>
		</g>
	</g>
	<g>
		<g>
			<linearGradient id="SVGID_1_" gradientUnits="userSpaceOnUse" x1="129.8317" y1="62.4186" x2="183.0058" y2="62.4186">
				<stop  offset="0" style="stop-color:#E84135"/>
				<stop  offset="0.9983" style="stop-color:#F5B817"/>
			</linearGradient>
			<polygon class="st0" points="129.83,66.85 129.83,57.99 183.01,57.99 183.01,66.85 			"/>
			<linearGradient id="SVGID_2_" gradientUnits="userSpaceOnUse" x1="129.8317" y1="86.7895" x2="183.0058" y2="86.7895">
				<stop  offset="0" style="stop-color:#E84135"/>
				<stop  offset="0.9983" style="stop-color:#F5B817"/>
			</linearGradient>
			<path class="st1" d="M183.01,100.05v-8.83v-8.86V73.5h-6.65h-39.88h-6.65v8.86v8.86v8.83v0.03h53.17V100.05z M136.48,82.36h39.88
				v8.86h-39.88V82.36z"/>
			<linearGradient id="SVGID_3_" gradientUnits="userSpaceOnUse" x1="129.8317" y1="120.0226" x2="183.0058" y2="120.0226">
				<stop  offset="0" style="stop-color:#E84135"/>
				<stop  offset="0.9983" style="stop-color:#F5B817"/>
			</linearGradient>
			<path class="st2" d="M183.01,133.28v-8.83v-8.86v-8.86h-6.65h-39.88h-6.65v8.86v8.86v8.83v0.03h53.17V133.28z M136.48,115.59
				h39.88v8.86h-39.88V115.59z"/>
			<linearGradient id="SVGID_4_" gradientUnits="userSpaceOnUse" x1="129.8317" y1="153.2556" x2="183.0058" y2="153.2556">
				<stop  offset="0" style="stop-color:#E84135"/>
				<stop  offset="0.9983" style="stop-color:#F5B817"/>
			</linearGradient>
			<path class="st3" d="M183.01,166.52v-8.83v-8.86v-8.86h-6.65h-39.88h-6.65v8.86v8.86v8.83v0.03h53.17V166.52z M136.48,148.82
				h39.88v8.86h-39.88V148.82z"/>
		</g>
		<g>
			<polygon class="st4" points="83.3,143.28 70.01,136.64 70.01,28.4 83.3,35.06 			"/>
			<polygon class="st5" points="103.24,153.26 89.95,146.61 89.95,38.38 103.24,44.66 			"/>
			<polygon class="st6" points="123.18,163.22 109.89,156.58 109.89,48.02 123.18,54.66 			"/>
		</g>
	</g>
	<g>
		<path class="st7" d="M447.91,157.33c0.68,0.44,1.87,0.91,3.02,0.91c1.66,0,2.44-0.83,2.44-1.87c0-1.09-0.65-1.68-2.34-2.31
			c-2.26-0.8-3.33-2.05-3.33-3.55c0-2.02,1.64-3.68,4.34-3.68c1.27,0,2.39,0.36,3.09,0.78l-0.57,1.66c-0.49-0.31-1.4-0.73-2.57-0.73
			c-1.35,0-2.1,0.78-2.1,1.71c0,1.04,0.75,1.5,2.39,2.13c2.18,0.83,3.3,1.92,3.3,3.78c0,2.2-1.72,3.76-4.7,3.76
			c-1.38,0-2.65-0.34-3.53-0.86L447.91,157.33z"/>
		<path class="st7" d="M469.9,153.28c0,4.64-3.22,6.66-6.26,6.66c-3.41,0-6.03-2.49-6.03-6.45c0-4.2,2.75-6.66,6.24-6.66
			C467.46,146.83,469.9,149.45,469.9,153.28z M459.92,153.41c0,2.75,1.59,4.82,3.82,4.82c2.18,0,3.82-2.05,3.82-4.87
			c0-2.12-1.07-4.82-3.77-4.82C461.09,148.54,459.92,151.03,459.92,153.41z"/>
		<path class="st7" d="M472.78,141.26h2.29v18.4h-2.29V141.26z"/>
		<path class="st7" d="M489.44,156.24c0,1.3,0.03,2.44,0.1,3.42h-2.03l-0.13-2.05h-0.05c-0.6,1.01-1.92,2.33-4.16,2.33
			c-1.97,0-4.34-1.09-4.34-5.49v-7.33h2.29v6.95c0,2.38,0.73,3.99,2.81,3.99c1.53,0,2.6-1.06,3.02-2.07
			c0.13-0.34,0.21-0.75,0.21-1.17v-7.7h2.29V156.24z"/>
		<path class="st7" d="M502.2,159.19c-0.6,0.31-1.92,0.73-3.61,0.73c-3.79,0-6.26-2.57-6.26-6.4c0-3.86,2.65-6.66,6.76-6.66
			c1.35,0,2.55,0.34,3.17,0.65l-0.52,1.76c-0.55-0.31-1.4-0.6-2.65-0.6c-2.88,0-4.44,2.12-4.44,4.74c0,2.9,1.87,4.69,4.37,4.69
			c1.3,0,2.16-0.34,2.81-0.62L502.2,159.19z"/>
		<path class="st7" d="M507.43,143.59c0.03,0.78-0.55,1.4-1.46,1.4c-0.81,0-1.38-0.62-1.38-1.4c0-0.8,0.6-1.43,1.43-1.43
			C506.88,142.17,507.43,142.79,507.43,143.59z M504.88,159.66v-12.54h2.29v12.54H504.88z"/>
		<path class="st7" d="M522.35,153.28c0,4.64-3.22,6.66-6.26,6.66c-3.41,0-6.03-2.49-6.03-6.45c0-4.2,2.75-6.66,6.24-6.66
			C519.91,146.83,522.35,149.45,522.35,153.28z M512.37,153.41c0,2.75,1.59,4.82,3.82,4.82c2.18,0,3.82-2.05,3.82-4.87
			c0-2.12-1.07-4.82-3.77-4.82C513.54,148.54,512.37,151.03,512.37,153.41z"/>
		<path class="st7" d="M525.23,150.51c0-1.3-0.03-2.36-0.1-3.4h2.03l0.13,2.07h0.05c0.62-1.19,2.08-2.36,4.16-2.36
			c1.74,0,4.44,1.04,4.44,5.34v7.49h-2.29v-7.23c0-2.02-0.75-3.71-2.91-3.71c-1.51,0-2.68,1.06-3.07,2.33
			c-0.1,0.29-0.16,0.67-0.16,1.06v7.54h-2.29V150.51z"/>
		<path class="st7" d="M540.93,153.8c0.05,3.08,2.03,4.35,4.32,4.35c1.64,0,2.63-0.29,3.48-0.65l0.39,1.63
			c-0.81,0.36-2.18,0.78-4.19,0.78c-3.87,0-6.19-2.54-6.19-6.32c0-3.78,2.24-6.76,5.9-6.76c4.11,0,5.2,3.6,5.2,5.91
			c0,0.47-0.05,0.83-0.08,1.06H540.93z M547.64,152.17c0.03-1.45-0.6-3.71-3.17-3.71c-2.31,0-3.33,2.12-3.51,3.71H547.64z"/>
		<path class="st7" d="M552.37,157.33c0.68,0.44,1.87,0.91,3.02,0.91c1.66,0,2.44-0.83,2.44-1.87c0-1.09-0.65-1.68-2.34-2.31
			c-2.26-0.8-3.33-2.05-3.33-3.55c0-2.02,1.64-3.68,4.34-3.68c1.27,0,2.39,0.36,3.09,0.78l-0.57,1.66c-0.49-0.31-1.4-0.73-2.57-0.73
			c-1.35,0-2.1,0.78-2.1,1.71c0,1.04,0.75,1.5,2.39,2.13c2.18,0.83,3.3,1.92,3.3,3.78c0,2.2-1.72,3.76-4.7,3.76
			c-1.38,0-2.65-0.34-3.53-0.86L552.37,157.33z"/>
	</g>
	<g>
		<path class="st7" d="M255.5,89.98v-0.32c0-3.02-2.49-5.47-5.51-5.47h-24.27c-3.02,0-5.47,2.45-5.47,5.47v0.32
			c0,3.02,2.45,5.47,5.47,5.47h21.5c5.54,0,10.52,2.38,13.96,6.18c0.29,0.25,0.5,0.53,0.71,0.82c2.66,3.27,4.26,7.43,4.26,11.94
			c0,10.45-8.49,18.9-18.94,18.9H228.5c-10.45,0-18.9-8.46-18.9-18.9h10.66c0,4.55,3.7,8.24,8.24,8.24h18.73
			c4.55,0,8.28-3.7,8.28-8.24c0-4.55-3.73-8.24-8.28-8.24h-21.5c-4.37,0-8.28-1.71-11.16-4.51c-0.78-0.75-1.49-1.56-2.1-2.49
			c-1.81-2.59-2.88-5.76-2.88-9.17v-0.32c0-8.92,7.21-16.17,16.13-16.17h24.27c8.92,0,16.17,7.25,16.17,16.17v0.32H255.5z"/>
		<path class="st7" d="M277.72,133.31v-59.8h10.67v59.8H277.72z"/>
		<path class="st7" d="M308.61,89.66v5.54h38.48v10.66h-38.48v11.3c0,3.02,2.45,5.51,5.47,5.51h43.67v10.66h-43.67
			c-8.92,0-16.13-7.25-16.13-16.17v-27.5c0-8.92,7.21-16.17,16.13-16.17h43.67v10.66h-43.67C311.06,84.15,308.61,86.64,308.61,89.66
			z"/>
		<path class="st7" d="M425.13,73.54v10.67h-24.57v49.13h-10.67V84.21h-24.57V73.54H425.13z"/>
		<path class="st7" d="M441.36,89.66v5.54h38.48v10.66h-38.48v11.3c0,3.02,2.45,5.51,5.47,5.51h43.67v10.66h-43.67
			c-8.92,0-16.13-7.25-16.13-16.17v-27.5c0-8.92,7.21-16.17,16.13-16.17h43.67v10.66h-43.67C443.81,84.15,441.36,86.64,441.36,89.66
			z"/>
		<path class="st7" d="M553.9,103.43c3.09,3.16,4.97,7.5,4.97,12.26c0,9.74-7.89,17.62-17.62,17.62H516.7
			c-7.32,0-13.57-4.44-16.24-10.77c-0.89-2.1-1.39-4.41-1.39-6.86c0-4.76,1.92-9.1,4.97-12.26c0.01-0.01,0.03-0.02,0.04-0.04
			c-1.51-1.56-2.77-3.37-3.63-5.4c-0.89-2.1-1.39-4.41-1.39-6.86c0-4.76,1.92-9.1,4.97-12.26c1.6-1.67,3.52-3.02,5.68-3.94
			c2.03-0.89,4.3-1.39,6.65-1.39c0.11-0.04,0.21-0.04,0.32-0.04h24.55c0.11,0,0.21,0,0.32,0.04c4.83,0.07,9.2,2.1,12.33,5.33
			c3.09,3.16,4.97,7.5,4.97,12.26c0,4.78-1.91,9.1-5,12.27C553.88,103.42,553.89,103.43,553.9,103.43z M548.21,91.14
			c0-3.73-2.95-6.79-6.65-6.96h-25.19c-3.7,0.18-6.65,3.23-6.65,6.96c0,3.78,3.05,6.86,6.81,6.95c0.05,0,0.1-0.02,0.16-0.02h24.55
			c0.05,0,0.1,0.01,0.16,0.02C545.17,98,548.21,94.92,548.21,91.14z M548.21,115.7c0-3.73-2.95-6.78-6.64-6.96
			c-0.11,0-0.21,0.03-0.32,0.03H516.7c-0.12,0-0.24-0.03-0.36-0.03c-3.68,0.2-6.61,3.24-6.61,6.96c0,3.84,3.13,6.96,6.96,6.96h24.55
			C545.09,122.66,548.21,119.53,548.21,115.7z"/>
	</g>
</g>
</svg>
