<?xml version="1.0" encoding="utf-8"?>
<!-- Generator: Adobe Illustrator 24.0.2, SVG Export Plug-In . SVG Version: 6.00 Build 0)  -->
<svg version="1.1" xmlns="http://www.w3.org/2000/svg" xmlns:xlink="http://www.w3.org/1999/xlink" x="0px" y="0px"
	 viewBox="0 0 441.95 194.95" style="enable-background:new 0 0 441.95 194.95;" xml:space="preserve">
<style type="text/css">
	.st0{fill:url(#SVGID_1_);}
	.st1{fill:url(#SVGID_2_);}
	.st2{fill:url(#SVGID_3_);}
	.st3{fill:url(#SVGID_4_);}
	.st4{fill:#5B2447;}
	.st5{fill:#90203D;}
	.st6{fill:#BE1D36;}
	.st7{fill:#2A2325;}
	.st8{display:none;fill:#010202;}
	.st9{fill:url(#SVGID_5_);}
	.st10{fill:url(#SVGID_6_);}
	.st11{fill:url(#SVGID_7_);}
	.st12{fill:url(#SVGID_8_);}
	.st13{fill:#F6B91A;}
	.st14{clip-path:url(#SVGID_10_);}
	.st15{opacity:0.72;fill:#292F6A;}
	.st16{fill:#FFFFFF;}
	.st17{fill:url(#SVGID_11_);}
	.st18{fill:url(#SVGID_12_);}
	.st19{fill:url(#SVGID_13_);}
	.st20{fill:url(#SVGID_14_);}
	.st21{fill:url(#SVGID_15_);}
	.st22{fill:url(#SVGID_16_);}
	.st23{fill:url(#SVGID_17_);}
	.st24{fill:url(#SVGID_18_);}
	.st25{fill:url(#SVGID_19_);}
	.st26{fill:url(#SVGID_20_);}
	.st27{fill:url(#SVGID_21_);}
	.st28{fill:url(#SVGID_22_);}
	.st29{fill:url(#SVGID_23_);}
	.st30{fill:url(#SVGID_24_);}
	.st31{fill:url(#SVGID_25_);}
	.st32{fill:url(#SVGID_26_);}
	.st33{fill:url(#SVGID_27_);}
	.st34{fill:url(#SVGID_28_);}
	.st35{fill:url(#SVGID_29_);}
	.st36{fill:url(#SVGID_30_);}
	.st37{fill:#010202;}
	.st38{clip-path:url(#SVGID_32_);}
	.st39{fill:url(#SVGID_33_);}
	.st40{fill:url(#SVGID_34_);}
	.st41{fill:url(#SVGID_35_);}
	.st42{fill:url(#SVGID_36_);}
	.st43{display:none;}
	.st44{display:inline;}
	.st45{fill:none;stroke:#9D9D9C;stroke-width:0.5;stroke-miterlimit:10;}
	.st46{fill:url(#SVGID_37_);}
	.st47{fill:url(#SVGID_38_);}
	.st48{fill:url(#SVGID_39_);}
	.st49{fill:url(#SVGID_40_);}
</style>
<g id="Capa_1">
</g>
<g id="Capa_1_copia_4">
	<rect class="st8" width="441.95" height="194.95"/>
	<g>
		<g>
			<g>
				<linearGradient id="SVGID_1_" gradientUnits="userSpaceOnUse" x1="76.6532" y1="61.4474" x2="137.3666" y2="61.4474">
					<stop  offset="0" style="stop-color:#E84135"/>
					<stop  offset="0.9983" style="stop-color:#F5B817"/>
				</linearGradient>
				<polygon class="st0" points="76.65,66.41 76.65,56.49 137.37,56.49 137.37,66.41 				"/>
				<linearGradient id="SVGID_2_" gradientUnits="userSpaceOnUse" x1="76.6533" y1="86.3703" x2="137.3667" y2="86.3703">
					<stop  offset="0" style="stop-color:#E84135"/>
					<stop  offset="0.9983" style="stop-color:#F5B817"/>
				</linearGradient>
				<path class="st1" d="M137.37,101.21v-9.88v-9.92v-9.92h-7.59H84.24h-7.59v9.92v9.92v9.88v0.04h60.71V101.21z M84.24,81.41h45.53
					v9.92H84.24V81.41z"/>
				<linearGradient id="SVGID_3_" gradientUnits="userSpaceOnUse" x1="76.6533" y1="121.2104" x2="137.3667" y2="121.2104">
					<stop  offset="0" style="stop-color:#E84135"/>
					<stop  offset="0.9983" style="stop-color:#F5B817"/>
				</linearGradient>
				<path class="st2" d="M137.37,136.05v-9.88v-9.92v-9.92h-7.59H84.24h-7.59v9.92v9.92v9.88v0.04h60.71V136.05z M84.24,116.25
					h45.53v9.92H84.24V116.25z"/>
				<linearGradient id="SVGID_4_" gradientUnits="userSpaceOnUse" x1="76.6533" y1="156.0505" x2="137.3667" y2="156.0505">
					<stop  offset="0" style="stop-color:#E84135"/>
					<stop  offset="0.9983" style="stop-color:#F5B817"/>
				</linearGradient>
				<path class="st3" d="M137.37,170.89v-9.88v-9.92v-9.92h-7.59H84.24h-7.59v9.92v9.92v9.88v0.04h60.71V170.89z M84.24,151.09
					h45.53v9.92H84.24V151.09z"/>
			</g>
			<g>
				<polygon class="st4" points="34.72,146.72 20.42,138.46 20.42,24.02 34.72,32.28 				"/>
				<polygon class="st5" points="53.39,157.5 39.09,149.24 39.09,34.8 53.39,43.06 				"/>
				<polygon class="st6" points="72.18,168.34 57.87,160.08 57.87,45.64 72.18,53.9 				"/>
			</g>
		</g>
		<g>
			<path class="st13" d="M190.81,93.52v-0.24c0-2.3-1.89-4.16-4.19-4.16h-18.46c-2.3,0-4.16,1.87-4.16,4.16v0.24
				c0,2.3,1.87,4.16,4.16,4.16h16.35c4.21,0,8,1.81,10.62,4.7c0.22,0.19,0.38,0.4,0.54,0.62c2.03,2.49,3.24,5.65,3.24,9.08
				c0,7.94-6.46,14.38-14.4,14.38h-14.24c-7.94,0-14.38-6.43-14.38-14.38h8.11c0,3.46,2.81,6.27,6.27,6.27h14.24
				c3.46,0,6.3-2.81,6.3-6.27c0-3.46-2.84-6.27-6.3-6.27h-16.35c-3.32,0-6.3-1.3-8.48-3.43c-0.59-0.57-1.13-1.19-1.59-1.89
				c-1.38-1.97-2.19-4.38-2.19-6.97v-0.24c0-6.78,5.49-12.3,12.27-12.3h18.46c6.78,0,12.29,5.51,12.29,12.3v0.24H190.81z"/>
			<path class="st13" d="M205.43,126.47V80.99h8.12v45.48H205.43z"/>
			<path class="st13" d="M228.16,93.27v4.22h29.27v8.11h-29.27v8.59c0,2.3,1.87,4.19,4.16,4.19h33.21v8.11h-33.21
				c-6.78,0-12.27-5.51-12.27-12.3V93.27c0-6.78,5.49-12.3,12.27-12.3h33.21v8.11h-33.21C230.03,89.09,228.16,90.98,228.16,93.27z"
				/>
			<path class="st13" d="M317.53,81.02v8.11h-18.68v37.37h-8.11V89.13h-18.68v-8.11H317.53z"/>
			<path class="st13" d="M332.16,93.27v4.22h29.27v8.11h-29.27v8.59c0,2.3,1.87,4.19,4.16,4.19h33.21v8.11h-33.21
				c-6.78,0-12.27-5.51-12.27-12.3V93.27c0-6.78,5.49-12.3,12.27-12.3h33.21v8.11h-33.21C334.02,89.09,332.16,90.98,332.16,93.27z"
				/>
			<path class="st13" d="M417.75,103.75c2.35,2.4,3.78,5.7,3.78,9.32c0,7.4-6,13.4-13.4,13.4h-18.67c-5.57,0-10.32-3.38-12.35-8.19
				c-0.67-1.59-1.05-3.35-1.05-5.22c0-3.62,1.46-6.92,3.78-9.32c0.01-0.01,0.02-0.02,0.03-0.03c-1.15-1.19-2.11-2.56-2.76-4.11
				c-0.67-1.59-1.05-3.35-1.05-5.21c0-3.62,1.46-6.92,3.78-9.32c1.22-1.27,2.68-2.3,4.32-3c1.54-0.68,3.27-1.05,5.05-1.05
				c0.08-0.03,0.16-0.03,0.24-0.03h18.67c0.08,0,0.16,0,0.24,0.03c3.68,0.05,7,1.59,9.38,4.05c2.35,2.4,3.78,5.7,3.78,9.32
				c0,3.63-1.46,6.92-3.8,9.33C417.73,103.74,417.74,103.75,417.75,103.75z M413.42,94.4c0-2.84-2.24-5.16-5.05-5.3h-19.16
				c-2.81,0.14-5.05,2.46-5.05,5.3c0,2.88,2.32,5.22,5.18,5.29c0.04,0,0.08-0.01,0.12-0.01h18.67c0.04,0,0.08,0.01,0.12,0.01
				C411.11,99.62,413.42,97.28,413.42,94.4z M413.42,113.08c0-2.84-2.24-5.16-5.05-5.3c-0.08,0-0.16,0.02-0.25,0.02h-18.67
				c-0.09,0-0.18-0.02-0.27-0.02c-2.8,0.15-5.02,2.46-5.02,5.29c0,2.92,2.38,5.3,5.3,5.3h18.67
				C411.05,118.37,413.42,116,413.42,113.08z"/>
		</g>
		<g>
			<path class="st13" d="M307.48,154.53c0.68,0.44,1.87,0.91,3.02,0.91c1.66,0,2.44-0.83,2.44-1.87c0-1.09-0.65-1.69-2.34-2.31
				c-2.26-0.81-3.33-2.05-3.33-3.56c0-2.03,1.64-3.69,4.34-3.69c1.27,0,2.39,0.36,3.09,0.78l-0.57,1.66
				c-0.49-0.31-1.4-0.73-2.57-0.73c-1.35,0-2.11,0.78-2.11,1.72c0,1.04,0.75,1.51,2.39,2.13c2.18,0.83,3.3,1.92,3.3,3.8
				c0,2.21-1.72,3.77-4.71,3.77c-1.38,0-2.65-0.34-3.54-0.86L307.48,154.53z"/>
			<path class="st13" d="M329.47,150.48c0,4.65-3.22,6.68-6.27,6.68c-3.41,0-6.03-2.5-6.03-6.47c0-4.21,2.76-6.68,6.24-6.68
				C327.03,144,329.47,146.63,329.47,150.48z M319.49,150.61c0,2.76,1.59,4.84,3.82,4.84c2.18,0,3.82-2.05,3.82-4.89
				c0-2.13-1.07-4.84-3.77-4.84C320.66,145.72,319.49,148.22,319.49,150.61z"/>
			<path class="st13" d="M332.36,138.41h2.29v18.46h-2.29V138.41z"/>
			<path class="st13" d="M349.02,153.44c0,1.3,0.03,2.44,0.1,3.43h-2.03l-0.13-2.05h-0.05c-0.6,1.01-1.92,2.34-4.16,2.34
				c-1.98,0-4.34-1.09-4.34-5.51v-7.36h2.29v6.97c0,2.39,0.73,4,2.81,4c1.53,0,2.6-1.07,3.02-2.08c0.13-0.34,0.21-0.75,0.21-1.17
				v-7.72h2.29V153.44z"/>
			<path class="st13" d="M361.79,156.41c-0.6,0.31-1.92,0.73-3.61,0.73c-3.8,0-6.27-2.57-6.27-6.42c0-3.87,2.65-6.68,6.76-6.68
				c1.35,0,2.55,0.34,3.17,0.65l-0.52,1.77c-0.55-0.31-1.4-0.6-2.65-0.6c-2.89,0-4.45,2.13-4.45,4.76c0,2.91,1.87,4.71,4.37,4.71
				c1.3,0,2.16-0.34,2.81-0.62L361.79,156.41z"/>
			<path class="st13" d="M367.02,140.75c0.03,0.78-0.55,1.4-1.46,1.4c-0.81,0-1.38-0.62-1.38-1.4c0-0.81,0.6-1.43,1.43-1.43
				C366.47,139.32,367.02,139.95,367.02,140.75z M364.47,156.87v-12.58h2.29v12.58H364.47z"/>
			<path class="st13" d="M381.94,150.48c0,4.65-3.22,6.68-6.27,6.68c-3.41,0-6.03-2.5-6.03-6.47c0-4.21,2.76-6.68,6.24-6.68
				C379.5,144,381.94,146.63,381.94,150.48z M371.96,150.61c0,2.76,1.59,4.84,3.82,4.84c2.18,0,3.82-2.05,3.82-4.89
				c0-2.13-1.07-4.84-3.77-4.84C373.13,145.72,371.96,148.22,371.96,150.61z"/>
			<path class="st13" d="M384.83,147.7c0-1.3-0.03-2.37-0.1-3.41h2.03l0.13,2.08h0.05c0.62-1.2,2.08-2.37,4.16-2.37
				c1.74,0,4.45,1.04,4.45,5.36v7.51h-2.29v-7.25c0-2.03-0.75-3.72-2.91-3.72c-1.51,0-2.68,1.07-3.07,2.34
				c-0.1,0.29-0.16,0.68-0.16,1.07v7.57h-2.29V147.7z"/>
			<path class="st13" d="M400.53,151c0.05,3.09,2.03,4.37,4.32,4.37c1.64,0,2.63-0.29,3.48-0.65l0.39,1.64
				c-0.81,0.36-2.18,0.78-4.19,0.78c-3.87,0-6.19-2.55-6.19-6.34c0-3.8,2.24-6.79,5.9-6.79c4.11,0,5.2,3.61,5.2,5.93
				c0,0.47-0.05,0.83-0.08,1.07H400.53z M407.24,149.36c0.03-1.46-0.6-3.72-3.17-3.72c-2.31,0-3.33,2.13-3.51,3.72H407.24z"/>
			<path class="st13" d="M411.97,154.53c0.68,0.44,1.87,0.91,3.02,0.91c1.66,0,2.44-0.83,2.44-1.87c0-1.09-0.65-1.69-2.34-2.31
				c-2.26-0.81-3.33-2.05-3.33-3.56c0-2.03,1.64-3.69,4.34-3.69c1.27,0,2.39,0.36,3.09,0.78l-0.57,1.66
				c-0.49-0.31-1.4-0.73-2.57-0.73c-1.35,0-2.11,0.78-2.11,1.72c0,1.04,0.75,1.51,2.39,2.13c2.18,0.83,3.3,1.92,3.3,3.8
				c0,2.21-1.72,3.77-4.71,3.77c-1.38,0-2.65-0.34-3.54-0.86L411.97,154.53z"/>
		</g>
	</g>
</g>
<g id="Capa_2">
</g>
<g id="Capa_3">
</g>
<g id="Capa_4">
</g>
<g id="Capa_5">
</g>
<g id="Capa_1_copia_2">
</g>
<g id="Capa_1_copia">
</g>
<g id="Capa_1_copia_3">
</g>
<g id="Capa_10">
</g>
</svg>
